<?xml version="1.0" encoding="utf-8"?>
<!-- Generator: Adobe Illustrator 24.3.0, SVG Export Plug-In . SVG Version: 6.00 Build 0)  -->
<svg version="1.1" xmlns="http://www.w3.org/2000/svg" xmlns:xlink="http://www.w3.org/1999/xlink" x="0px" y="0px"
	 viewBox="0 0 222.3 222.3" style="enable-background:new 0 0 222.3 222.3;" xml:space="preserve">
<style type="text/css">
	.st0{fill:url(#SVGID_1_);}
	.st1{fill:url(#SVGID_2_);}
</style>
<g id="BACKGROUND">
</g>
<g id="OBJECTS">
	<g>
		<linearGradient id="SVGID_1_" gradientUnits="userSpaceOnUse" x1="53.4781" y1="214.8431" x2="153.1062" y2="131.8197">
			<stop  offset="0" style="stop-color:#731CB7"/>
			<stop  offset="1" style="stop-color:#C61D99"/>
		</linearGradient>
		<polygon class="st0" points="111.2,179.9 42.6,140.3 42.6,193.2 62.4,200.6 62.4,171 111.2,203.1 161.3,171 161.3,200.6 
			179.7,193.2 179.7,140.3 		"/>
		<linearGradient id="SVGID_2_" gradientUnits="userSpaceOnUse" x1="170.9254" y1="20.5257" x2="41.7649" y2="132.5789">
			<stop  offset="0" style="stop-color:#F29B75"/>
			<stop  offset="1" style="stop-color:#C61D99"/>
		</linearGradient>
		<polygon class="st1" points="42.6,19.2 42.6,83.9 111,123.4 159.7,95.3 159.7,114.4 111,142.5 42.6,103 42.6,125.8 111,165.3 
			179.5,125.8 179.5,61.1 111,100.6 62.4,72.5 62.4,53.4 111,81.5 179.5,42 179.5,19.2 111,58.7 		"/>
	</g>
</g>
</svg>
